# xmcd
#
# Track frame offsets:
#	150
#	17433
#	35008
#	54023
#	71185
#	88098
#	104358
#	120443
#	137223
#	154260
#
# Disc length: 2292 seconds
#
# Revision: 0
# Processed by: cddbd v1.5.2PL0 Copyright (c) Steve Scherf et al.
# Submitted via: EasyCDDAExtractor 15.3.0.1
#
DISCID=8008f20a
DTITLE=Jessica Cristina - Mas Alla
DYEAR=1994
DGENRE=Latin
TTITLE0=La Ultima Vez
TTITLE1=Buena Suerte
TTITLE2=Abrazame
TTITLE3=Cuando Pienses En Mi
TTITLE4=Te Siento
TTITLE5=Si Necesitas De Mi
TTITLE6=Desde Que Te Amo
TTITLE7=Mas Alla
TTITLE8=Amandonos
TTITLE9=Nunca Olvides Recordar
EXTD=
EXTT0=
EXTT1=
EXTT2=
EXTT3=
EXTT4=
EXTT5=
EXTT6=
EXTT7=
EXTT8=
EXTT9=
PLAYORDER=
